<svg width="103" height="20" viewBox="0 0 103 20" fill="none" xmlns="http://www.w3.org/2000/svg">
<g clip-path="url(#clip0_2_1209)">
<path fill-rule="evenodd" clip-rule="evenodd" d="M0 10C0 14.9706 4.02944 19 9 19C13.9706 19 18 14.9706 18 10C18 5.02944 13.9706 1 9 1C4.02944 1 0 5.02944 0 10ZM1.91869 13.1396C2.85072 15.2387 4.68869 16.8463 6.93632 17.4662C6.28553 16.4108 5.7756 14.8872 5.49196 13.1396H1.91869ZM1.48657 11.8838C1.33587 11.2808 1.25586 10.6498 1.25586 10C1.25586 9.35029 1.33588 8.71922 1.4866 8.11617H5.33154C5.27376 8.7286 5.24329 9.35956 5.24329 10C5.24329 10.6404 5.27376 11.2714 5.33154 11.8838H1.48657ZM6.64363 13.1396C7.11644 15.8076 8.12073 17.7442 9 17.7442C9.87927 17.7442 10.8836 15.8076 11.3564 13.1396H6.64363ZM11.5321 11.8838H6.46792C6.40489 11.2767 6.37024 10.645 6.37024 10C6.37024 9.35503 6.40489 8.72324 6.46794 8.11617H11.5321C11.5951 8.72324 11.6298 9.35503 11.6298 10C11.6298 10.645 11.5951 11.2767 11.5321 11.8838ZM12.5081 13.1396C12.2244 14.8872 11.7145 16.4108 11.0637 17.4662C13.3113 16.8464 15.1494 15.2387 16.0814 13.1396H12.5081ZM16.5135 11.8838H12.6685C12.7263 11.2714 12.7567 10.6404 12.7567 10C12.7567 9.35956 12.7263 8.7286 12.6685 8.11617H16.5135C16.6642 8.71922 16.7442 9.35029 16.7442 10C16.7442 10.6498 16.6642 11.2808 16.5135 11.8838ZM1.91875 6.86035H5.49197C5.7756 5.11288 6.2855 3.58928 6.93625 2.53389C4.6887 3.15378 2.85079 4.76135 1.91875 6.86035ZM9 2.25586C8.12074 2.25586 7.11647 4.19243 6.64365 6.86035H11.3563C10.8835 4.19243 9.87926 2.25586 9 2.25586ZM12.508 6.86035H16.0813C15.1493 4.76132 13.3113 3.15373 11.0637 2.53386C11.7145 3.58925 12.2244 5.11287 12.508 6.86035Z" fill="#919191"/>
<path d="M36.075 15V13.657H30.788V10.342H35.191V8.999H30.788V5.718H36.075V4.375H29.343V15H36.075ZM44.5484 15V9.645C44.5484 7.962 43.6134 6.959 42.0324 6.959C41.1314 6.959 40.2134 7.418 39.4994 8.132V6.959L38.1054 7.18V15H39.4994V9.152C39.9414 8.727 40.7234 8.302 41.5394 8.302C42.6444 8.302 43.1544 8.761 43.1544 10.104V15H44.5484ZM47.8397 9.917C47.8397 8.829 48.5197 8.081 49.5397 8.081C50.7297 8.081 51.3247 8.812 51.3247 9.832C51.3247 10.92 50.6787 11.651 49.6587 11.651C48.5367 11.651 47.8397 10.954 47.8397 9.917ZM48.5197 15.374C48.8597 15.408 49.4377 15.442 49.9307 15.442C51.4947 15.442 52.2597 15.646 52.2597 16.496C52.2597 17.448 51.1037 18.077 49.6417 18.077C48.1627 18.077 47.1767 17.465 47.1767 16.632C47.1767 16.054 47.7377 15.595 48.5197 15.374ZM47.4657 15.119C46.3947 15.323 45.7997 16.054 45.7997 16.938C45.7997 18.332 47.3637 19.216 49.4207 19.216C51.7667 19.216 53.6197 17.941 53.6197 16.224C53.6197 14.847 52.5487 14.133 50.2197 14.133C50.3897 14.133 49.5057 14.133 49.5057 14.133C48.0437 14.133 47.7377 13.861 47.7377 13.402C47.7377 13.011 48.1797 12.705 48.5027 12.586C48.9617 12.722 49.1997 12.773 49.5907 12.773C51.4097 12.773 52.7017 11.481 52.7017 9.917C52.7017 9.339 52.4807 8.608 52.1747 8.319L53.6707 8.591L53.6197 7.214L51.6137 7.401C51.1207 7.18 50.4407 6.959 49.6077 6.959C47.5847 6.959 46.4457 8.37 46.4457 9.9C46.4457 10.971 46.9217 11.821 47.7377 12.297C46.9557 12.569 46.4457 13.164 46.4457 13.81C46.4457 14.354 46.8027 14.83 47.4657 15.119ZM56.3666 15V3.321L54.9726 3.542V15H56.3666ZM60.3894 4.494C60.3894 3.967 60.1004 3.491 59.4714 3.491C58.8424 3.491 58.5534 3.967 58.5534 4.494C58.5534 5.021 58.8424 5.497 59.4714 5.497C60.1004 5.497 60.3894 5.021 60.3894 4.494ZM60.1684 15V6.959L58.7744 7.18V15H60.1684ZM67.5571 12.79C67.5571 11.311 66.3331 10.767 65.1941 10.461C64.2251 10.206 63.3921 9.951 63.3921 9.203C63.3921 8.574 63.9361 8.234 64.7691 8.234C65.4151 8.234 66.3501 8.455 66.9961 8.812L67.3531 7.537C66.6391 7.18 65.7381 6.959 64.8371 6.959C63.2731 6.959 62.0491 7.877 62.0491 9.322C62.0491 10.75 63.2561 11.294 64.3611 11.6C65.2791 11.855 66.1971 12.11 66.1971 12.892C66.1971 13.589 65.5341 13.997 64.6501 13.997C63.8511 13.997 62.8991 13.708 62.2531 13.266L61.8961 14.541C62.6101 14.983 63.6641 15.272 64.6161 15.272C66.3161 15.272 67.5571 14.269 67.5571 12.79ZM75.8424 15V9.645C75.8424 7.962 74.9074 6.959 73.4114 6.959C72.4254 6.959 71.5074 7.384 70.7934 8.098C70.7934 8.013 70.7934 3.321 70.7934 3.321L69.3994 3.542V15H70.7934V9.152C71.2354 8.727 72.0174 8.302 72.9184 8.302C73.9384 8.302 74.4484 8.761 74.4484 10.104V15H75.8424Z" fill="#919191"/>
<path fill-rule="evenodd" clip-rule="evenodd" d="M95.3767 12.8276C95.2109 13.0575 94.8379 13.0575 94.6306 12.8276L92.7654 10.6437L91.1074 8.68966C90.8588 8.42146 91.066 8 91.4805 8H98.5268C98.8999 8 99.1486 8.42146 98.8999 8.68966L97.2419 10.6437L95.3767 12.8276Z" fill="#919191"/>
</g>
<defs>
<clipPath id="clip0_2_1209">
<rect width="103" height="20" fill="white"/>
</clipPath>
</defs>
</svg>
